<svg xmlns="http://www.w3.org/2000/svg" viewBox="0 0 32 32">
  <path
    fill="#FF5A5F"
    d="M16 3.5C12.9 3.5 10.6 6 8.5 10.2L3.7 20C1.9 23.7 4.5 28 8.6 28c2.6 0 4.9-1.5 7.4-4.4 2.5 2.9 4.8 4.4 7.4 4.4 4.1 0 6.7-4.3 4.9-8L23.5 10.2C21.4 6 19.1 3.5 16 3.5Zm0 4c1.5 0 2.9 1.7 4.1 4.2l1 2.1c-1.8.7-3.4 1.9-5.1 3.8-1.7-1.9-3.3-3.1-5.1-3.8l1-2.1C13.1 9.2 14.5 7.5 16 7.5Zm-7.4 16.8c-1.4 0-2.3-1.5-1.7-2.8l2.2-4.6c1.4.5 2.7 1.6 4.2 3.4-1.8 2.4-3.4 4-4.7 4Zm14.8 0c-1.3 0-2.9-1.6-4.7-4 1.5-1.8 2.8-2.9 4.2-3.4l2.2 4.6c.6 1.3-.3 2.8-1.7 2.8Z"
  />
</svg>
